<svg xmlns="http://www.w3.org/2000/svg" version="1.1" xmlns:xlink="http://www.w3.org/1999/xlink" xmlns:svgjs="http://svgjs.dev/svgjs" width="1000" height="1000" viewBox="0 0 1000 1000"><rect width="1000" height="1000" fill="#e65728"></rect><g transform="matrix(0.7,0,0,0.7,150.0000000000001,106.25)"><svg viewBox="0 0 320 360" data-background-color="#e65728" preserveAspectRatio="xMidYMid meet" height="1125" width="1000" xmlns="http://www.w3.org/2000/svg" xmlns:xlink="http://www.w3.org/1999/xlink"><g id="tight-bounds" transform="matrix(1,0,0,1,0,0)"><svg viewBox="0 0 320 360" height="360" width="320"><g><svg></svg></g><g><svg viewBox="0 0 320 360" height="360" width="320"><g><path xmlns="http://www.w3.org/2000/svg" d="M20.961 227.22l3.726 4.658-1.863-6.056c-0.466-2.795-3.726 0.466-1.863 1.398M25.153 224.425c1.397 2.329 2.795 4.658 2.795 6.987 0 3.261 2.795 4.658 5.123 5.589-3.261-3.726-5.124-13.974-7.918-12.576M204.017 26.929c7.918 0 15.371-0.932 23.756 0.931 20.495 5.124 37.729 15.371 49.374 29.811l32.606 52.169c1.397 13.042 4.192 27.482 3.726 43.319 3.261 0 2.795-4.658 6.521-5.59-3.726 9.316-5.59 20.961-6.521 34.469-2.329-7.453 0-18.632 0.466-24.687-3.261 5.124-5.124 1.397-5.124-0.932 0.466-3.726-1.397-3.261-2.795-4.658-5.124-4.658-8.384-9.782-12.11-17.7 2.329-6.055 2.795-14.905-4.658-19.563-2.329-1.397-5.124-3.726-6.521-7.453-1.863-5.124-5.124-11.179-4.193-19.097 0.466-2.329-6.987 5.124-11.179 1.863-18.166-12.576-36.332-27.016-58.224-39.127-11.645 0-20.029-4.192-24.221-9.316-3.726-4.658-0.932-10.713 4.658-11.179 3.261 0 6.987-0.932 9.782 0.932 0.466-1.863 2.329-4.192 4.657-4.192M157.904 16.215l0.932 0.466c4.658 0.932 6.987 7.453 12.11 5.124 0 3.261 0.466 6.521-0.466 8.85-1.397 3.726-5.59 3.726-8.85 3.726-31.208-1.863-49.374 11.179-68.471 22.358-5.124 3.261-10.713 5.59-14.906 9.782-20.029 18.632-41.921 35.866-47.045 70.335l-4.192 38.195c-0.466 4.192-5.124 8.384-4.192 13.508l3.26 22.824c-3.261-3.261-5.124 0.932-4.192 2.795 0.466 1.397 2.329 6.055 5.124 1.863 3.726 6.987 7.453 20.495 12.576 26.55 15.837 18.632 36.332 35.4 53.101 52.169 4.192-0.932 7.453-0.932 8.384-3.727 1.397 2.795-1.397 5.59-3.726 6.056 7.453 4.658 15.837 8.85 27.016 9.781 14.44 0.932 27.948 3.261 40.524 6.522 6.521-1.863 13.042-2.795 20.029-3.261 2.329 0 3.726-3.726 6.521-4.658l0.466-4.658c2.795 4.192 2.329-1.397 0.466-4.192 3.261 2.795 4.192 5.124 5.589 6.987 0-1.397 3.726-6.521 3.727-0.466l0.931-6.055c1.397-0.932 1.863 5.124 3.261 0.931 1.397-4.192 4.192-0.932 6.987-2.329-0.932 1.863-0.466 5.59 2.794 3.261l3.727-3.261c2.329 5.59 6.055 3.261 7.918 2.329 20.495-13.042 40.99-28.413 60.553-43.784l-0.466 6.055 2.329-7.453c2.329 2.329 4.192 0.466 5.124-0.931 2.795-4.658 6.521-9.316 12.577-13.508-7.453 20.029-16.303 35.866-27.482 48.908l-4.658 5.59c0 3.261-0.932 7.453-4.658 7.918-1.863 0.466-5.59-0.932-8.384 1.863-1.397 1.863 3.261 5.59-0.466 2.795-3.261-2.329-6.521 0-10.248 0.932-2.795 0.932 1.863 3.726 2.795 5.589 0.932 1.863 1.863 3.726 1.398 6.056l-5.124-5.59c-6.055 3.261-9.782 9.316-14.906 13.974-2.329 1.863-1.397 5.124-1.397 7.918-3.261 0-6.987-0.932-8.85 0.932-1.397 1.863-0.932 4.658-0.932 7.453-4.658-0.466-5.124-7.453-9.315-6.056-4.192 0.932-8.85 1.397-12.577 3.727 2.795 5.59-4.658 2.329-3.726 3.26-6.987-4.192-13.042-7.453-20.495-4.658-15.837-5.124-35.4-2.795-49.84-0.931 0-2.329 0.466-4.658-0.466-5.124-0.932 2.329-3.726 1.397-3.26 1.397-8.85-6.055-17.7-9.782-27.016-14.905-8.384 0.932-16.303-3.261-18.632-5.59-6.521-6.055-13.974-2.795-20.029-4.192-13.042-3.261-17.7-16.769-19.098-26.084-0.932-4.658-4.658-6.521-6.055-6.056-6.055-19.563-15.371-37.263-22.824-55.429-1.863-4.658-1.397-9.316-1.397-14.44 2.329 0.932 4.658 0.466 4.192-2.794-2.329-15.371-7.918-27.016-13.974-38.195 3.261-15.837 3.726-34.469 11.179-48.443 6.521-12.576 18.632-19.098 27.016-29.811 2.795-3.726 2.795-8.85 5.59-12.11 9.316-9.316 18.632-19.098 28.879-27.482 4.658-3.726 10.247 0 17.234-1.397 2.329-8.384 11.645-15.837 20.495-13.508 3.726 0.932 11.179-8.85 13.508-9.782 3.726-1.397 1.863 3.726 1.863 6.987 8.85-6.987 20.961-10.713 32.14-14.906" fill="#ffffff" fill-rule="nonzero" stroke="none" stroke-width="1" stroke-linecap="butt" stroke-linejoin="miter" stroke-miterlimit="10" stroke-dasharray="" stroke-dashoffset="0" font-family="none" font-weight="none" font-size="none" text-anchor="none" style="mix-blend-mode: normal" data-fill-palette-color="tertiary"></path></g><g transform="matrix(1,0,0,1,64,95.73435996150144)"><svg viewBox="0 0 192 168.53128007699712" height="168.53128007699712" width="192"><g><svg viewBox="0 0 192 168.53128007699712" height="168.53128007699712" width="192"><g><svg viewBox="0 0 192 168.53128007699712" height="168.53128007699712" width="192"><g><svg viewBox="0 0 192 168.53128007699712" height="168.53128007699712" width="192"><g id="textblocktransform"><svg viewBox="0 0 192 168.53128007699712" height="168.53128007699712" width="192" id="textblock"><g><svg viewBox="0 0 192 168.53128007699712" height="168.53128007699712" width="192"><g transform="matrix(1,0,0,1,0,0)"><svg width="192" viewBox="3.700000047683716 -41.54999923706055 51.95000076293945 45.599998474121094" height="168.53128007699712" data-palette-color="#ffffff"><path d="M16.7-15.85L16.7-15.85Q19.8-20.45 22.83-24.33 25.85-28.2 28.6-31 31.35-33.8 33.65-35.35 35.95-36.9 37.65-36.9L37.65-36.9Q38.3-36.9 39.08-36.4 39.85-35.9 40.53-35.1 41.2-34.3 41.65-33.38 42.1-32.45 42.1-31.6L42.1-31.6Q39-30.6 36.02-28.98 33.05-27.35 30.33-25.23 27.6-23.1 25.13-20.5 22.65-17.9 20.65-14.95L20.65-14.95Q21.45-12.9 22.63-10.58 23.8-8.25 25.2-6.08 26.6-3.9 28.2-2.05 29.8-0.2 31.45 0.9L31.45 0.9Q31.2 1.45 30.6 1.95 30 2.45 29.3 2.88 28.6 3.3 27.83 3.55 27.05 3.8 26.4 3.8L26.4 3.8Q25.1 3.8 24 2.58 22.9 1.35 21.78-1.13 20.65-3.6 19.43-7.28 18.2-10.95 16.7-15.85ZM9.15 4.05L9.15 4.05Q7.25 3.6 6 2.48 4.75 1.35 3.7-0.35L3.7-0.35Q4.15-1.3 4.78-2.85 5.4-4.4 6.3-6.68 7.2-8.95 8.45-12.13 9.7-15.3 11.35-19.55L11.35-19.55Q12.4-22.25 13.08-24.1 13.75-25.95 14.23-27.73 14.7-29.5 15.15-31.65 15.6-33.8 16.2-37.1L16.2-37.1Q18.3-36.7 20.03-35.25 21.75-33.8 23-31.75L23-31.75Q22.45-31.05 21.73-29.63 21-28.2 20.1-26.2 19.2-24.2 18.1-21.75 17-19.3 15.8-16.55L15.8-16.55Q13.1-10.55 11.55-5.58 10-0.6 9.15 4.05ZM46.2-23.35L46.2-23.35Q47.2-23.35 48.5-22.75 49.8-22.15 50.8-21.2L50.8-21.2Q50.55-23.2 50.17-24.98 49.8-26.75 49.07-28.65 48.35-30.55 47.15-32.8 45.95-35.05 44.15-37.95L44.15-37.95Q44.3-38.4 44.82-39 45.35-39.6 46.02-40.13 46.7-40.65 47.42-41.05 48.15-41.45 48.8-41.55L48.8-41.55Q50.2-40 51.45-37.68 52.7-35.35 53.65-32.68 54.6-30 55.12-27.15 55.65-24.3 55.65-21.7L55.65-21.7Q55.65-19.1 55.07-16.35 54.5-13.6 53.47-10.98 52.45-8.35 51.1-6 49.75-3.65 48.17-1.8 46.6 0.05 44.9 1.23 43.2 2.4 41.5 2.7L41.5 2.7Q38.05 2.3 36.22 0.48 34.4-1.35 34.4-4.55L34.4-4.55Q34.4-6.25 34.92-8.25 35.45-10.25 36.32-12.23 37.2-14.2 38.37-16.07 39.55-17.95 40.87-19.45 42.2-20.95 43.55-22 44.9-23.05 46.2-23.35ZM41.1 0.7L41.1 0.7Q42.85 0.1 44.6-1.95 46.35-4 47.75-6.78 49.15-9.55 50.02-12.73 50.9-15.9 50.9-18.85L50.9-18.85Q50.9-19.7 50.9-19.9 50.9-20.1 50.85-20.3L50.85-20.3Q49.65-19.8 48.3-18.6 46.95-17.4 45.6-15.83 44.25-14.25 43.05-12.4 41.85-10.55 40.9-8.7 39.95-6.85 39.4-5.15 38.85-3.45 38.85-2.15L38.85-2.15Q38.85 0.35 41.1 0.7Z" opacity="1" transform="matrix(1,0,0,1,0,0)" fill="#ffffff" class="undefined-text-0" data-fill-palette-color="primary" id="text-0"></path></svg></g></svg></g></svg></g></svg></g><g></g></svg></g></svg></g></svg></g></svg></g><defs></defs></svg><rect width="320" height="360" fill="none" stroke="none" visibility="hidden"></rect></g></svg></g></svg>